<?xml version="1.0" encoding="UTF-8" standalone="no"?>
<!DOCTYPE svg PUBLIC "-//W3C//DTD SVG 1.1//EN" "http://www.w3.org/Graphics/SVG/1.1/DTD/svg11.dtd">
<svg width="100%" height="100%" viewBox="0 0 500 500" version="1.1" xmlns="http://www.w3.org/2000/svg" xmlns:xlink="http://www.w3.org/1999/xlink" xml:space="preserve" xmlns:serif="http://www.serif.com/" style="fill-rule:evenodd;clip-rule:evenodd;stroke-linejoin:round;stroke-miterlimit:2;">
    <g id="_5min" serif:id="5min">
        <g transform="matrix(0.281687,0,0,0.428571,178.945,-8.57143)">
            <rect x="234.5" y="20" width="35.5" height="70"/>
        </g>
        <g transform="matrix(0.243948,0.140843,-0.214286,0.371154,317.75,-9.45715)">
            <rect x="234.5" y="20" width="35.5" height="70"/>
        </g>
        <g transform="matrix(0.140843,0.243948,-0.371154,0.214286,438.402,59.1785)">
            <rect x="234.5" y="20" width="35.5" height="70"/>
        </g>
        <g transform="matrix(9.38206e-17,0.281687,-0.428571,1.27741e-16,508.571,178.945)">
            <rect x="234.5" y="20" width="35.5" height="70"/>
        </g>
        <g transform="matrix(-0.140843,0.243948,-0.371154,-0.214286,509.457,317.75)">
            <rect x="234.5" y="20" width="35.5" height="70"/>
        </g>
        <g transform="matrix(-0.243948,0.140843,-0.214286,-0.371154,440.822,438.402)">
            <rect x="234.5" y="20" width="35.5" height="70"/>
        </g>
        <g transform="matrix(-0.281687,1.50113e-16,-2.23547e-16,-0.428571,321.055,508.571)">
            <rect x="234.5" y="20" width="35.5" height="70"/>
        </g>
        <g transform="matrix(-0.243948,-0.140843,0.214286,-0.371154,182.25,509.457)">
            <rect x="234.5" y="20" width="35.5" height="70"/>
        </g>
        <g transform="matrix(-0.140843,-0.243948,0.371154,-0.214286,61.5983,440.822)">
            <rect x="234.5" y="20" width="35.5" height="70"/>
        </g>
        <g transform="matrix(-2.25169e-16,-0.281687,0.428571,-3.51288e-16,-8.57143,321.055)">
            <rect x="234.5" y="20" width="35.5" height="70"/>
        </g>
        <g transform="matrix(0.140843,-0.243948,0.371154,0.214286,-9.45715,182.25)">
            <rect x="234.5" y="20" width="35.5" height="70"/>
        </g>
        <g transform="matrix(0.243948,-0.140843,0.214286,0.371154,59.1785,61.5983)">
            <rect x="234.5" y="20" width="35.5" height="70"/>
        </g>
    </g>
    <g id="_1min" serif:id="1min">
        <g transform="matrix(0.168086,0.0176666,-0.0298653,0.284149,234.33,-8.76985)">
            <rect x="234.5" y="20" width="35.5" height="70"/>
        </g>
        <g transform="matrix(0.165319,0.0351396,-0.0594033,0.279471,261.464,-8.99027)">
            <rect x="234.5" y="20" width="35.5" height="70"/>
        </g>
        <g transform="matrix(0.16074,0.0522276,-0.0882906,0.27173,288.473,-6.37314)">
            <rect x="234.5" y="20" width="35.5" height="70"/>
        </g>
        <g transform="matrix(0.1544,0.0687434,-0.11621,0.261013,315.061,-0.947137)">
            <rect x="234.5" y="20" width="35.5" height="70"/>
        </g>
        <g transform="matrix(0.136734,0.0993428,-0.167939,0.231148,365.814,18.0636)">
            <rect x="234.5" y="20" width="35.5" height="70"/>
        </g>
        <g transform="matrix(0.1256,0.113091,-0.19118,0.212327,389.424,31.44)">
            <rect x="234.5" y="20" width="35.5" height="70"/>
        </g>
        <g transform="matrix(0.113091,0.1256,-0.212327,0.19118,411.506,47.2111)">
            <rect x="234.5" y="20" width="35.5" height="70"/>
        </g>
        <g transform="matrix(0.0993428,0.136734,-0.231148,0.167939,431.818,65.2039)">
            <rect x="234.5" y="20" width="35.5" height="70"/>
        </g>
        <g transform="matrix(0.0687434,0.1544,-0.261013,0.11621,466.266,107.044)">
            <rect x="234.5" y="20" width="35.5" height="70"/>
        </g>
        <g transform="matrix(0.0522276,0.16074,-0.27173,0.0882906,480.024,130.433)">
            <rect x="234.5" y="20" width="35.5" height="70"/>
        </g>
        <g transform="matrix(0.0351396,0.165319,-0.279471,0.0594033,491.262,155.132)">
            <rect x="234.5" y="20" width="35.5" height="70"/>
        </g>
        <g transform="matrix(0.0176666,0.168086,-0.284149,0.0298653,499.857,180.871)">
            <rect x="234.5" y="20" width="35.5" height="70"/>
        </g>
        <g transform="matrix(-0.0176666,0.168086,-0.284149,-0.0298653,508.77,234.33)">
            <rect x="234.5" y="20" width="35.5" height="70"/>
        </g>
        <g transform="matrix(-0.0351396,0.165319,-0.279471,-0.0594033,508.99,261.464)">
            <rect x="234.5" y="20" width="35.5" height="70"/>
        </g>
        <g transform="matrix(-0.0522276,0.16074,-0.27173,-0.0882906,506.373,288.473)">
            <rect x="234.5" y="20" width="35.5" height="70"/>
        </g>
        <g transform="matrix(-0.0687434,0.1544,-0.261013,-0.11621,500.947,315.061)">
            <rect x="234.5" y="20" width="35.5" height="70"/>
        </g>
        <g transform="matrix(-0.0993428,0.136734,-0.231148,-0.167939,481.936,365.814)">
            <rect x="234.5" y="20" width="35.5" height="70"/>
        </g>
        <g transform="matrix(-0.113091,0.1256,-0.212327,-0.19118,468.56,389.424)">
            <rect x="234.5" y="20" width="35.5" height="70"/>
        </g>
        <g transform="matrix(-0.1256,0.113091,-0.19118,-0.212327,452.789,411.506)">
            <rect x="234.5" y="20" width="35.5" height="70"/>
        </g>
        <g transform="matrix(-0.136734,0.0993428,-0.167939,-0.231148,434.796,431.818)">
            <rect x="234.5" y="20" width="35.5" height="70"/>
        </g>
        <g transform="matrix(-0.1544,0.0687434,-0.11621,-0.261013,392.956,466.266)">
            <rect x="234.5" y="20" width="35.5" height="70"/>
        </g>
        <g transform="matrix(-0.16074,0.0522276,-0.0882906,-0.27173,369.567,480.024)">
            <rect x="234.5" y="20" width="35.5" height="70"/>
        </g>
        <g transform="matrix(-0.165319,0.0351396,-0.0594033,-0.279471,344.868,491.262)">
            <rect x="234.5" y="20" width="35.5" height="70"/>
        </g>
        <g transform="matrix(-0.168086,0.0176666,-0.0298653,-0.284149,319.129,499.857)">
            <rect x="234.5" y="20" width="35.5" height="70"/>
        </g>
        <g transform="matrix(-0.168086,-0.0176666,0.0298653,-0.284149,265.67,508.77)">
            <rect x="234.5" y="20" width="35.5" height="70"/>
        </g>
        <g transform="matrix(-0.165319,-0.0351396,0.0594033,-0.279471,238.536,508.99)">
            <rect x="234.5" y="20" width="35.5" height="70"/>
        </g>
        <g transform="matrix(-0.16074,-0.0522276,0.0882906,-0.27173,211.527,506.373)">
            <rect x="234.5" y="20" width="35.5" height="70"/>
        </g>
        <g transform="matrix(-0.1544,-0.0687434,0.11621,-0.261013,184.939,500.947)">
            <rect x="234.5" y="20" width="35.5" height="70"/>
        </g>
        <g transform="matrix(-0.136734,-0.0993428,0.167939,-0.231148,134.186,481.936)">
            <rect x="234.5" y="20" width="35.5" height="70"/>
        </g>
        <g transform="matrix(-0.1256,-0.113091,0.19118,-0.212327,110.576,468.56)">
            <rect x="234.5" y="20" width="35.5" height="70"/>
        </g>
        <g transform="matrix(-0.113091,-0.1256,0.212327,-0.19118,88.4945,452.789)">
            <rect x="234.5" y="20" width="35.5" height="70"/>
        </g>
        <g transform="matrix(-0.0993428,-0.136734,0.231148,-0.167939,68.182,434.796)">
            <rect x="234.5" y="20" width="35.5" height="70"/>
        </g>
        <g transform="matrix(-0.0687434,-0.1544,0.261013,-0.11621,33.7339,392.956)">
            <rect x="234.5" y="20" width="35.5" height="70"/>
        </g>
        <g transform="matrix(-0.0522276,-0.16074,0.27173,-0.0882906,19.9757,369.567)">
            <rect x="234.5" y="20" width="35.5" height="70"/>
        </g>
        <g transform="matrix(-0.0351396,-0.165319,0.279471,-0.0594033,8.73764,344.868)">
            <rect x="234.5" y="20" width="35.5" height="70"/>
        </g>
        <g transform="matrix(-0.0176666,-0.168086,0.284149,-0.0298653,0.142934,319.129)">
            <rect x="234.5" y="20" width="35.5" height="70"/>
        </g>
        <g transform="matrix(0.0176666,-0.168086,0.284149,0.0298653,-8.76985,265.67)">
            <rect x="234.5" y="20" width="35.5" height="70"/>
        </g>
        <g transform="matrix(0.0351396,-0.165319,0.279471,0.0594033,-8.99027,238.536)">
            <rect x="234.5" y="20" width="35.5" height="70"/>
        </g>
        <g transform="matrix(0.0522276,-0.16074,0.27173,0.0882906,-6.37314,211.527)">
            <rect x="234.5" y="20" width="35.5" height="70"/>
        </g>
        <g transform="matrix(0.0687434,-0.1544,0.261013,0.11621,-0.947137,184.939)">
            <rect x="234.5" y="20" width="35.5" height="70"/>
        </g>
        <g transform="matrix(0.0993428,-0.136734,0.231148,0.167939,18.0636,134.186)">
            <rect x="234.5" y="20" width="35.5" height="70"/>
        </g>
        <g transform="matrix(0.113091,-0.1256,0.212327,0.19118,31.44,110.576)">
            <rect x="234.5" y="20" width="35.5" height="70"/>
        </g>
        <g transform="matrix(0.1256,-0.113091,0.19118,0.212327,47.2111,88.4945)">
            <rect x="234.5" y="20" width="35.5" height="70"/>
        </g>
        <g transform="matrix(0.136734,-0.0993428,0.167939,0.231148,65.2039,68.182)">
            <rect x="234.5" y="20" width="35.5" height="70"/>
        </g>
        <g transform="matrix(0.1544,-0.0687434,0.11621,0.261013,107.044,33.7339)">
            <rect x="234.5" y="20" width="35.5" height="70"/>
        </g>
        <g transform="matrix(0.16074,-0.0522276,0.0882906,0.27173,130.433,19.9757)">
            <rect x="234.5" y="20" width="35.5" height="70"/>
        </g>
        <g transform="matrix(0.165319,-0.0351396,0.0594033,0.279471,155.132,8.73764)">
            <rect x="234.5" y="20" width="35.5" height="70"/>
        </g>
        <g transform="matrix(0.168086,-0.0176666,0.0298653,0.284149,180.871,0.142934)">
            <rect x="234.5" y="20" width="35.5" height="70"/>
        </g>
    </g>
    <g id="Text">
        <g transform="matrix(1,0,0,1,-21.3301,19.0696)">
            <g transform="matrix(64,0,0,64,243.658,70.9304)">
                <path d="M0.339,-0.791L0.339,-0L0.142,-0L0.142,-0.424C0.142,-0.485 0.141,-0.522 0.138,-0.534C0.135,-0.547 0.127,-0.556 0.114,-0.562C0.1,-0.569 0.071,-0.572 0.025,-0.572L0.006,-0.572L0.006,-0.664C0.101,-0.684 0.174,-0.727 0.223,-0.791L0.339,-0.791Z" style="fill-rule:nonzero;"/>
            </g>
            <g transform="matrix(64,0,0,64,268.033,70.9304)">
                <path d="M0.46,-0.135L0.46,-0L0.026,-0L0.026,-0.113C0.155,-0.323 0.231,-0.453 0.256,-0.503C0.28,-0.553 0.292,-0.592 0.292,-0.62C0.292,-0.642 0.288,-0.658 0.281,-0.668C0.274,-0.679 0.263,-0.684 0.248,-0.684C0.233,-0.684 0.221,-0.678 0.214,-0.667C0.207,-0.655 0.203,-0.632 0.203,-0.597L0.203,-0.521L0.026,-0.521L0.026,-0.55C0.026,-0.595 0.029,-0.629 0.033,-0.655C0.038,-0.681 0.049,-0.706 0.067,-0.73C0.085,-0.755 0.108,-0.774 0.137,-0.787C0.165,-0.799 0.2,-0.806 0.24,-0.806C0.318,-0.806 0.378,-0.786 0.418,-0.747C0.458,-0.708 0.478,-0.659 0.478,-0.6C0.478,-0.554 0.467,-0.507 0.444,-0.456C0.421,-0.406 0.355,-0.299 0.244,-0.135L0.46,-0.135Z" style="fill-rule:nonzero;"/>
            </g>
        </g>
        <g transform="matrix(0.866025,-0.5,0.5,0.866025,-107.441,174.828)">
            <g transform="matrix(48,0,0,48,253.627,70.9304)">
                <path d="M0.339,-0.791L0.339,-0L0.142,-0L0.142,-0.424C0.142,-0.485 0.141,-0.522 0.138,-0.534C0.135,-0.547 0.127,-0.556 0.114,-0.562C0.1,-0.569 0.071,-0.572 0.025,-0.572L0.006,-0.572L0.006,-0.664C0.101,-0.684 0.174,-0.727 0.223,-0.791L0.339,-0.791Z" style="fill-rule:nonzero;"/>
            </g>
            <g transform="matrix(48,0,0,48,271.908,70.9304)">
                <path d="M0.339,-0.791L0.339,-0L0.142,-0L0.142,-0.424C0.142,-0.485 0.141,-0.522 0.138,-0.534C0.135,-0.547 0.127,-0.556 0.114,-0.562C0.1,-0.569 0.071,-0.572 0.025,-0.572L0.006,-0.572L0.006,-0.664C0.101,-0.684 0.174,-0.727 0.223,-0.791L0.339,-0.791Z" style="fill-rule:nonzero;"/>
            </g>
        </g>
        <g transform="matrix(0.5,-0.866025,0.866025,0.5,-97.1386,363.62)">
            <g transform="matrix(48,0,0,48,249.9,70.9304)">
                <path d="M0.339,-0.791L0.339,-0L0.142,-0L0.142,-0.424C0.142,-0.485 0.141,-0.522 0.138,-0.534C0.135,-0.547 0.127,-0.556 0.114,-0.562C0.1,-0.569 0.071,-0.572 0.025,-0.572L0.006,-0.572L0.006,-0.664C0.101,-0.684 0.174,-0.727 0.223,-0.791L0.339,-0.791Z" style="fill-rule:nonzero;"/>
            </g>
            <g transform="matrix(48,0,0,48,268.182,70.9304)">
                <path d="M0.5,-0.523L0.5,-0.259C0.5,-0.199 0.497,-0.156 0.491,-0.128C0.484,-0.101 0.471,-0.076 0.45,-0.052C0.43,-0.028 0.405,-0.011 0.376,-0C0.347,0.01 0.315,0.015 0.279,0.015C0.232,0.015 0.192,0.01 0.161,-0.001C0.13,-0.012 0.105,-0.029 0.086,-0.052C0.068,-0.075 0.055,-0.1 0.047,-0.125C0.039,-0.151 0.035,-0.191 0.035,-0.247L0.035,-0.523C0.035,-0.596 0.041,-0.65 0.054,-0.686C0.066,-0.722 0.091,-0.751 0.129,-0.773C0.166,-0.795 0.211,-0.806 0.264,-0.806C0.307,-0.806 0.346,-0.798 0.38,-0.783C0.415,-0.768 0.44,-0.749 0.457,-0.728C0.474,-0.706 0.485,-0.681 0.491,-0.654C0.497,-0.626 0.5,-0.583 0.5,-0.523ZM0.303,-0.589C0.303,-0.631 0.301,-0.658 0.297,-0.668C0.293,-0.679 0.284,-0.684 0.269,-0.684C0.254,-0.684 0.244,-0.678 0.24,-0.667C0.235,-0.656 0.232,-0.63 0.232,-0.589L0.232,-0.204C0.232,-0.158 0.235,-0.13 0.239,-0.121C0.243,-0.111 0.253,-0.106 0.268,-0.106C0.282,-0.106 0.292,-0.112 0.296,-0.123C0.301,-0.134 0.303,-0.159 0.303,-0.198L0.303,-0.589Z" style="fill-rule:nonzero;"/>
            </g>
        </g>
        <g transform="matrix(1,0,0,1,-207.111,204.851)">
            <g transform="matrix(64,0,0,64,254.58,70.9304)">
                <path d="M0.035,-0.21L0.232,-0.21C0.232,-0.173 0.233,-0.15 0.234,-0.14C0.235,-0.131 0.239,-0.123 0.246,-0.116C0.253,-0.11 0.262,-0.106 0.274,-0.106C0.285,-0.106 0.293,-0.11 0.299,-0.116C0.306,-0.122 0.309,-0.13 0.31,-0.14C0.311,-0.149 0.312,-0.169 0.312,-0.199L0.312,-0.325C0.302,-0.304 0.287,-0.288 0.268,-0.277C0.248,-0.267 0.224,-0.261 0.195,-0.261C0.159,-0.261 0.127,-0.271 0.099,-0.291C0.071,-0.31 0.054,-0.333 0.046,-0.361C0.039,-0.388 0.035,-0.425 0.035,-0.472L0.035,-0.535C0.035,-0.59 0.037,-0.631 0.042,-0.658C0.046,-0.685 0.057,-0.71 0.076,-0.733C0.094,-0.756 0.119,-0.774 0.151,-0.787C0.184,-0.799 0.221,-0.806 0.264,-0.806C0.316,-0.806 0.36,-0.798 0.394,-0.784C0.427,-0.769 0.454,-0.748 0.472,-0.72C0.491,-0.693 0.501,-0.664 0.504,-0.634C0.507,-0.604 0.509,-0.545 0.509,-0.458L0.509,-0.348C0.509,-0.254 0.507,-0.191 0.505,-0.159C0.502,-0.128 0.491,-0.098 0.471,-0.069C0.451,-0.041 0.424,-0.02 0.39,-0.006C0.355,0.009 0.316,0.016 0.271,0.016C0.215,0.016 0.17,0.007 0.135,-0.011C0.099,-0.029 0.074,-0.054 0.058,-0.087C0.043,-0.119 0.035,-0.16 0.035,-0.21ZM0.232,-0.457C0.232,-0.423 0.237,-0.403 0.245,-0.395C0.254,-0.387 0.263,-0.383 0.272,-0.383C0.286,-0.383 0.296,-0.388 0.302,-0.398C0.308,-0.408 0.312,-0.428 0.312,-0.457L0.312,-0.6C0.312,-0.634 0.309,-0.657 0.302,-0.668C0.296,-0.679 0.286,-0.684 0.272,-0.684C0.264,-0.684 0.255,-0.68 0.246,-0.672C0.237,-0.663 0.232,-0.641 0.232,-0.604L0.232,-0.457Z" style="fill-rule:nonzero;"/>
            </g>
        </g>
        <g transform="matrix(0.5,0.866025,-0.866025,0.5,175.989,-32.0396)">
            <g transform="matrix(48,0,0,48,269.083,289.455)">
                <path d="M0.412,-0.448C0.441,-0.437 0.463,-0.419 0.479,-0.396C0.494,-0.373 0.502,-0.317 0.502,-0.23C0.502,-0.166 0.496,-0.119 0.483,-0.088C0.471,-0.058 0.447,-0.033 0.411,-0.014C0.375,0.005 0.327,0.015 0.267,0.015C0.208,0.015 0.162,0.006 0.128,-0.013C0.094,-0.031 0.069,-0.056 0.054,-0.086C0.04,-0.117 0.032,-0.168 0.032,-0.239C0.032,-0.287 0.036,-0.329 0.043,-0.364C0.051,-0.399 0.074,-0.427 0.112,-0.448C0.088,-0.46 0.07,-0.479 0.057,-0.504C0.045,-0.53 0.039,-0.562 0.039,-0.602C0.039,-0.67 0.058,-0.721 0.096,-0.755C0.133,-0.789 0.19,-0.806 0.265,-0.806C0.352,-0.806 0.412,-0.788 0.445,-0.752C0.479,-0.715 0.495,-0.664 0.495,-0.597C0.495,-0.554 0.49,-0.523 0.479,-0.505C0.468,-0.486 0.445,-0.467 0.412,-0.448ZM0.301,-0.618C0.301,-0.645 0.298,-0.663 0.294,-0.671C0.289,-0.68 0.28,-0.684 0.267,-0.684C0.254,-0.684 0.245,-0.679 0.24,-0.67C0.236,-0.661 0.233,-0.644 0.233,-0.618L0.233,-0.558C0.233,-0.534 0.236,-0.518 0.241,-0.509C0.246,-0.5 0.255,-0.495 0.268,-0.495C0.281,-0.495 0.289,-0.5 0.294,-0.509C0.299,-0.517 0.301,-0.536 0.301,-0.564L0.301,-0.618ZM0.305,-0.29C0.305,-0.32 0.302,-0.34 0.295,-0.35C0.289,-0.36 0.279,-0.365 0.266,-0.365C0.253,-0.365 0.244,-0.36 0.238,-0.35C0.232,-0.341 0.229,-0.32 0.229,-0.29L0.229,-0.187C0.229,-0.153 0.233,-0.131 0.239,-0.121C0.245,-0.111 0.255,-0.106 0.269,-0.106C0.283,-0.106 0.292,-0.111 0.297,-0.121C0.302,-0.131 0.305,-0.154 0.305,-0.188L0.305,-0.29Z" style="fill-rule:nonzero;"/>
            </g>
        </g>
        <g transform="matrix(0.866025,0.5,-0.5,0.866025,44.8844,42.7523)">
            <g transform="matrix(48,0,0,48,272.517,289.455)">
                <path d="M0.383,-0.791L0.383,-0.618L0.257,-0L0.061,-0L0.201,-0.648L0.006,-0.648L0.006,-0.791L0.383,-0.791Z" style="fill-rule:nonzero;"/>
            </g>
        </g>
        <g transform="matrix(1,0,0,1,-21.3301,390.632)">
            <g transform="matrix(64,0,0,64,254.58,70.9304)">
                <path d="M0.509,-0.581L0.312,-0.581C0.312,-0.617 0.311,-0.641 0.31,-0.65C0.309,-0.66 0.306,-0.668 0.299,-0.674C0.292,-0.681 0.282,-0.684 0.27,-0.684C0.26,-0.684 0.252,-0.681 0.245,-0.675C0.239,-0.669 0.235,-0.661 0.234,-0.651C0.233,-0.641 0.232,-0.621 0.232,-0.592L0.232,-0.466C0.243,-0.487 0.257,-0.503 0.277,-0.513C0.296,-0.524 0.32,-0.529 0.349,-0.529C0.385,-0.529 0.417,-0.52 0.445,-0.5C0.472,-0.48 0.49,-0.457 0.498,-0.43C0.505,-0.402 0.509,-0.365 0.509,-0.319L0.509,-0.256C0.509,-0.201 0.507,-0.159 0.502,-0.132C0.498,-0.105 0.487,-0.08 0.469,-0.057C0.45,-0.034 0.425,-0.017 0.393,-0.004C0.361,0.009 0.323,0.015 0.281,0.015C0.228,0.015 0.184,0.008 0.15,-0.007C0.117,-0.021 0.09,-0.043 0.072,-0.07C0.054,-0.098 0.043,-0.126 0.04,-0.157C0.037,-0.187 0.035,-0.246 0.035,-0.333L0.035,-0.442C0.035,-0.536 0.037,-0.599 0.039,-0.631C0.042,-0.663 0.053,-0.693 0.073,-0.721C0.093,-0.75 0.12,-0.771 0.155,-0.785C0.189,-0.799 0.229,-0.806 0.273,-0.806C0.329,-0.806 0.374,-0.797 0.41,-0.779C0.445,-0.761 0.471,-0.736 0.486,-0.704C0.501,-0.671 0.509,-0.63 0.509,-0.581ZM0.312,-0.334C0.312,-0.362 0.308,-0.381 0.302,-0.392C0.296,-0.402 0.286,-0.407 0.272,-0.407C0.258,-0.407 0.248,-0.402 0.242,-0.392C0.236,-0.382 0.232,-0.363 0.232,-0.334L0.232,-0.191C0.232,-0.156 0.235,-0.133 0.241,-0.123C0.247,-0.112 0.257,-0.106 0.271,-0.106C0.28,-0.106 0.289,-0.111 0.298,-0.119C0.307,-0.127 0.312,-0.15 0.312,-0.186L0.312,-0.334Z" style="fill-rule:nonzero;"/>
            </g>
        </g>
        <g transform="matrix(0.866025,-0.5,0.5,0.866025,-32.0396,324.011)">
            <g transform="matrix(48,0,0,48,269.036,289.455)">
                <path d="M0.466,-0.791L0.466,-0.664L0.221,-0.664L0.221,-0.53C0.252,-0.566 0.291,-0.584 0.339,-0.584C0.394,-0.584 0.435,-0.569 0.463,-0.538C0.49,-0.508 0.504,-0.449 0.504,-0.363L0.504,-0.25C0.504,-0.194 0.502,-0.153 0.496,-0.127C0.491,-0.101 0.479,-0.076 0.462,-0.054C0.444,-0.032 0.42,-0.015 0.388,-0.003C0.357,0.009 0.319,0.015 0.273,0.015C0.223,0.015 0.178,0.006 0.139,-0.011C0.1,-0.029 0.073,-0.056 0.057,-0.091C0.04,-0.126 0.032,-0.18 0.032,-0.254L0.032,-0.297L0.229,-0.297L0.229,-0.248C0.229,-0.196 0.231,-0.16 0.235,-0.139C0.238,-0.117 0.251,-0.106 0.272,-0.106C0.282,-0.106 0.29,-0.11 0.296,-0.116C0.302,-0.122 0.305,-0.129 0.305,-0.136C0.306,-0.143 0.306,-0.174 0.307,-0.229L0.307,-0.386C0.307,-0.415 0.304,-0.436 0.298,-0.446C0.292,-0.457 0.281,-0.462 0.267,-0.462C0.258,-0.462 0.25,-0.46 0.244,-0.454C0.238,-0.449 0.234,-0.443 0.232,-0.436C0.23,-0.43 0.229,-0.415 0.229,-0.392L0.034,-0.392L0.042,-0.791L0.466,-0.791Z" style="fill-rule:nonzero;"/>
            </g>
        </g>
        <g transform="matrix(0.5,-0.866025,0.866025,0.5,42.7523,455.116)">
            <g transform="matrix(48,0,0,48,269.927,289.455)">
                <path d="M0.438,-0.791L0.438,-0.274L0.494,-0.274L0.494,-0.139L0.438,-0.139L0.438,-0L0.24,-0L0.24,-0.139L0.006,-0.139L0.006,-0.274L0.176,-0.791L0.438,-0.791ZM0.24,-0.274L0.24,-0.61L0.153,-0.274L0.24,-0.274Z" style="fill-rule:nonzero;"/>
            </g>
        </g>
        <g transform="matrix(1,0,0,1,164.451,204.851)">
            <g transform="matrix(64,0,0,64,254.94,70.9304)">
                <path d="M0.406,-0.448C0.436,-0.438 0.458,-0.421 0.473,-0.398C0.487,-0.375 0.495,-0.322 0.495,-0.237C0.495,-0.174 0.487,-0.125 0.473,-0.091C0.459,-0.056 0.434,-0.03 0.399,-0.011C0.364,0.007 0.319,0.016 0.264,0.016C0.201,0.016 0.152,0.005 0.116,-0.016C0.081,-0.037 0.057,-0.063 0.046,-0.093C0.035,-0.123 0.029,-0.176 0.029,-0.251L0.029,-0.314L0.227,-0.314L0.227,-0.186C0.227,-0.151 0.229,-0.13 0.233,-0.12C0.237,-0.111 0.246,-0.106 0.26,-0.106C0.275,-0.106 0.285,-0.112 0.29,-0.124C0.295,-0.136 0.297,-0.166 0.297,-0.216L0.297,-0.271C0.297,-0.301 0.294,-0.323 0.287,-0.337C0.28,-0.351 0.27,-0.36 0.257,-0.365C0.243,-0.369 0.218,-0.371 0.179,-0.372L0.179,-0.487C0.226,-0.487 0.255,-0.489 0.266,-0.492C0.277,-0.496 0.285,-0.504 0.29,-0.516C0.295,-0.528 0.297,-0.547 0.297,-0.572L0.297,-0.616C0.297,-0.644 0.295,-0.662 0.289,-0.671C0.283,-0.68 0.274,-0.684 0.262,-0.684C0.249,-0.684 0.239,-0.679 0.234,-0.67C0.229,-0.661 0.227,-0.641 0.227,-0.611L0.227,-0.546L0.029,-0.546L0.029,-0.613C0.029,-0.689 0.047,-0.74 0.081,-0.766C0.116,-0.793 0.17,-0.806 0.246,-0.806C0.34,-0.806 0.403,-0.788 0.437,-0.751C0.471,-0.714 0.487,-0.663 0.487,-0.598C0.487,-0.554 0.481,-0.522 0.469,-0.502C0.457,-0.482 0.436,-0.464 0.406,-0.448Z" style="fill-rule:nonzero;"/>
            </g>
        </g>
        <g transform="matrix(0.5,0.866025,-0.866025,0.5,325.172,-107.441)">
            <g transform="matrix(48,0,0,48,259.861,70.9304)">
                <path d="M0.46,-0.135L0.46,-0L0.026,-0L0.026,-0.113C0.155,-0.323 0.231,-0.453 0.256,-0.503C0.28,-0.553 0.292,-0.592 0.292,-0.62C0.292,-0.642 0.288,-0.658 0.281,-0.668C0.274,-0.679 0.263,-0.684 0.248,-0.684C0.233,-0.684 0.221,-0.678 0.214,-0.667C0.207,-0.655 0.203,-0.632 0.203,-0.597L0.203,-0.521L0.026,-0.521L0.026,-0.55C0.026,-0.595 0.029,-0.629 0.033,-0.655C0.038,-0.681 0.049,-0.706 0.067,-0.73C0.085,-0.755 0.108,-0.774 0.137,-0.787C0.165,-0.799 0.2,-0.806 0.24,-0.806C0.318,-0.806 0.378,-0.786 0.418,-0.747C0.458,-0.708 0.478,-0.659 0.478,-0.6C0.478,-0.554 0.467,-0.507 0.444,-0.456C0.421,-0.406 0.355,-0.299 0.244,-0.135L0.46,-0.135Z" style="fill-rule:nonzero;"/>
            </g>
        </g>
        <g transform="matrix(0.866025,0.5,-0.5,0.866025,136.38,-97.1386)">
            <g transform="matrix(48,0,0,48,262.768,70.9304)">
                <path d="M0.339,-0.791L0.339,-0L0.142,-0L0.142,-0.424C0.142,-0.485 0.141,-0.522 0.138,-0.534C0.135,-0.547 0.127,-0.556 0.114,-0.562C0.1,-0.569 0.071,-0.572 0.025,-0.572L0.006,-0.572L0.006,-0.664C0.101,-0.684 0.174,-0.727 0.223,-0.791L0.339,-0.791Z" style="fill-rule:nonzero;"/>
            </g>
        </g>
    </g>
</svg>
